<svg xmlns="http://www.w3.org/2000/svg" width="136" height="136" viewBox="0 0 136 136">
  <g id="Group_35" data-name="Group 35" transform="translate(-276 -91)">
    <g id="Group_33" data-name="Group 33" transform="translate(168)">
      <rect id="Rectangle_24" data-name="Rectangle 24" width="136" height="136" rx="20" transform="translate(108 91)" fill="#60c4c4"/>
      <path id="Path_23" data-name="Path 23" d="M59.984-56.571v2.414a10.385,10.385,0,0,0-4.2,3.162Q53.775-48.638,51.821-43L36.3,3.1q-2.759-.23-5.576-.23t-5.576.23L5.142-47.718q-1.725-4.369-3.564-5.4a6.678,6.678,0,0,0-3.1-1.035v-2.414q4.6.345,9.543.517t10.922.172q3.564,0,7.531-.23t7.416-.46v2.414a36.585,36.585,0,0,0-3.737.172,3.549,3.549,0,0,0-2.414,1.035q-.747.862-.287,3.162L40.324-13.917l-1.495,2.3,6.438-19.2q3.909-11.612,1.38-17.3t-7.588-6.036v-2.414q2.414.23,6.208.345t5.864.115q2.069,0,4.829-.115A32.577,32.577,0,0,0,59.984-56.571Z" transform="translate(147 185.873)" fill="#363636"/>
    </g>
  </g>
</svg>
