<svg xmlns="http://www.w3.org/2000/svg" width="106.64" height="41.71" viewBox="0 0 106.64 41.71">
  <path id="Path_24" data-name="Path 24" d="M22.4-22.317v.9a3.884,3.884,0,0,0-1.57,1.183,9.678,9.678,0,0,0-1.483,2.988L13.545,0q-1.032-.086-2.086-.086T9.374,0L1.892-19.006A3.976,3.976,0,0,0,.559-21.027,2.5,2.5,0,0,0-.6-21.414v-.9q1.72.129,3.569.193t4.085.065q1.333,0,2.816-.086t2.774-.172v.9a13.682,13.682,0,0,0-1.4.065,1.327,1.327,0,0,0-.9.387,1.421,1.421,0,0,0-.108,1.182L15.05-6.364l-.559.86L16.9-12.685q1.462-4.343.516-6.472a3.31,3.31,0,0,0-2.838-2.257v-.9q.9.086,2.322.129t2.193.043q.774,0,1.806-.043A12.184,12.184,0,0,0,22.4-22.317Zm6.88-11.309a5.65,5.65,0,0,1,3.461.924,3.254,3.254,0,0,1,1.226,2.774,3.254,3.254,0,0,1-1.226,2.773,5.65,5.65,0,0,1-3.461.924,5.65,5.65,0,0,1-3.462-.924A3.254,3.254,0,0,1,24.6-29.928,3.254,3.254,0,0,1,25.822-32.7,5.65,5.65,0,0,1,29.283-33.626ZM33.411-22.79V-4a4.006,4.006,0,0,0,.538,2.451,2.323,2.323,0,0,0,1.87.645V0q-.86-.043-2.58-.107T29.713-.172q-1.806,0-3.655.065T23.263,0V-.9a2.323,2.323,0,0,0,1.871-.645A4.006,4.006,0,0,0,25.671-4V-17.63a6.084,6.084,0,0,0-.516-2.86,1.974,1.974,0,0,0-1.892-.924v-.9q1.376.129,2.666.129,2.15,0,4.021-.151A32.844,32.844,0,0,0,33.411-22.79Zm20.124-.129a6.615,6.615,0,0,1,5.332,2.644q2.15,2.645,2.15,8.148a17.574,17.574,0,0,1-1.376,7.654A8.263,8.263,0,0,1,55.986-.538,11,11,0,0,1,51,.6,18.939,18.939,0,0,1,48.332.43,6.029,6.029,0,0,1,46.01-.43l.473-.688a3.97,3.97,0,0,0,1.247.645,4.336,4.336,0,0,0,1.29.215q2.021,0,2.989-2.709a25.85,25.85,0,0,0,.967-8.17,34.05,34.05,0,0,0-.387-5.891,6.726,6.726,0,0,0-1.032-2.86,1.864,1.864,0,0,0-1.462-.8,3.109,3.109,0,0,0-2.15.86A2.881,2.881,0,0,0,47-17.587v-2.107a6.141,6.141,0,0,1,2.666-2.43A8.932,8.932,0,0,1,53.535-22.919ZM47-33.626V.086a7.967,7.967,0,0,0-2.9-.645,8.832,8.832,0,0,0-2.687.3A4.478,4.478,0,0,0,39.56.688l-.6-.43a4.5,4.5,0,0,0,.258-1.183q.043-.581.043-1.182V-28.466a6.085,6.085,0,0,0-.516-2.86,1.974,1.974,0,0,0-1.892-.924v-.9q1.376.129,2.666.129,2.15,0,4.021-.15A32.846,32.846,0,0,0,47-33.626ZM74.777-22.919A7.959,7.959,0,0,1,80.732-20.7Q82.9-18.49,82.9-13.287H69.445l-.086-.817h7.267A27.884,27.884,0,0,0,76.454-18a10.311,10.311,0,0,0-.688-2.86q-.473-1.075-1.29-1.075-1.161,0-1.892,1.827a21.521,21.521,0,0,0-.946,6.257l.172.344q-.043.43-.043.86v.9a11.742,11.742,0,0,0,.753,4.687A4.793,4.793,0,0,0,74.411-4.73a4.627,4.627,0,0,0,2.3.645,8.39,8.39,0,0,0,2.322-.451,6,6,0,0,0,2.881-2.43l.731.258a12.7,12.7,0,0,1-1.656,3.419A9.318,9.318,0,0,1,78.045-.495,8.3,8.3,0,0,1,73.659.6,11.131,11.131,0,0,1,68.65-.516a8.1,8.1,0,0,1-3.591-3.7,15.176,15.176,0,0,1-1.333-6.923,13.651,13.651,0,0,1,1.462-6.729,9.059,9.059,0,0,1,3.978-3.827A12.642,12.642,0,0,1,74.777-22.919Zm31.261.6v.9a3.884,3.884,0,0,0-1.569,1.183,9.678,9.678,0,0,0-1.483,2.988l-5.375,16L95.417,3.784,85.1-19.006a4.6,4.6,0,0,0-1.376-2.021,2.268,2.268,0,0,0-1.118-.387v-.9q1.72.129,3.569.193t3.44.065q2.021,0,3.483-.086t2.752-.172v.9a11.8,11.8,0,0,0-1.462.086,1.586,1.586,0,0,0-.989.408q-.3.323.043,1.139l5.5,13.072-.473.344,2.064-6.321q1.462-4.343.516-6.472a3.31,3.31,0,0,0-2.838-2.257v-.9q.9.086,2.322.129t2.193.043q.774,0,1.806-.043A12.184,12.184,0,0,0,106.038-22.317ZM97.61-1.247,95.8,3.956a6.519,6.519,0,0,1-1.892,3.1,4.934,4.934,0,0,1-1.483.731,8.408,8.408,0,0,1-2.516.3A9.326,9.326,0,0,1,87.354,7.7a5.726,5.726,0,0,1-2.322-1.269,3.069,3.069,0,0,1-.968-2.386,2.9,2.9,0,0,1,1.161-2.408,4.835,4.835,0,0,1,3.053-.9,4.562,4.562,0,0,1,2.816.8,2.8,2.8,0,0,1,1.053,2.386,3.27,3.27,0,0,1-.666,1.892,4,4,0,0,1-2.129,1.419q.344.043.774.064t.688.022a3.878,3.878,0,0,0,2.451-.839A5.164,5.164,0,0,0,94.9,3.87l1.5-4.687Z" transform="translate(0.602 33.626)" fill="#60c4c4"/>
</svg>
