<?xml version="1.0" encoding="utf-8"?>
<!-- Generator: Adobe Illustrator 24.1.0, SVG Export Plug-In . SVG Version: 6.00 Build 0)  -->
<svg version="1.1" id="Layer_1" xmlns="http://www.w3.org/2000/svg" xmlns:xlink="http://www.w3.org/1999/xlink" x="0px" y="0px"
	 viewBox="0 0 158.89 100.49" style="enable-background:new 0 0 158.89 100.49;" xml:space="preserve">
<style type="text/css">
	.st0{display:none;fill:#0F0E0E;}
	.st1{fill:#FFFFFF;}
	.st2{fill:#81E6D9;}
</style>
<rect x="-42.56" y="-49.51" class="st0" width="505" height="407"/>
<g>
	<g>
		<g>
			<path class="st1" d="M102.9,18.92c-1.07-2.41-3.22-4.29-5.77-4.56c-2.01-0.27-4.96,0.13-7.92,3.76
				c-3.89,4.7-11,10.06-15.96,12.21c-0.8-2.95-3.09-5.5-7.78-7.38c-0.8-3.62-2.82-5.5-4.43-6.57c-1.88-1.21-4.02-1.74-5.77-1.61
				c-0.54-2.15-1.74-4.02-3.49-5.63c-3.09-2.82-6.71-3.89-10.6-3.22C32.61,7.24,24.83,16.9,21.2,22c-0.27-0.8-0.54-1.74-0.54-2.68
				C18.79,3.35,12.22,0,6.85,0H6.72C4.7,0,3.23,0.67,2.02,2.01c-1.88,2.15-2.41,5.9-1.74,11.81c0.54,4.16,1.21,12.07,0.8,16.64
				c-0.54,4.96-0.54,12.21-0.27,16.37v0.8c0.27,3.49,0.8,10.2,4.16,16.37c1.07,1.61,2.28,3.22,3.35,4.83
				c1.07,1.21,2.28,2.41,3.76,3.49c3.62,2.68,7.24,3.89,10.87,3.89c1.07,0,2.28-0.13,3.35-0.4c0.13,0.13,0.13,0.27,0.27,0.4
				c3.09,3.22,6.17,5.23,9.66,6.31c1.88,0.27,3.76,0.4,5.5,0.67c2.68-0.13,5.5-0.94,8.45-2.28c7.11-3.62,12.07-10.33,17.17-17.57
				c2.68-3.76,5.5-7.78,8.85-11.4C101.83,36.36,104.92,23.48,102.9,18.92z"/>
			<path class="st2" d="M65.74,27.23c3.89,2.01,4.7,4.83,3.35,10.33c-1.61,6.84-11.67,19.05-15.96,19.18
				c-0.94,0-3.35,0.13-4.56-5.23c0.54-0.27,1.07-0.67,1.61-1.07C56.62,45.75,64.54,35.42,65.74,27.23z M52.73,28.44
				c1.88-3.62,2.95-6.98,3.09-9.93c0.94,0,2.15,0.27,3.22,1.07c1.61,1.07,2.55,2.68,2.82,4.96c0.8,6.17-6.98,17.57-13.95,22.81
				c-3.22,2.41-5.37,2.68-6.31,2.28c-2.15-0.94-2.15-4.56-2.01-5.9C44.55,40.11,49.78,34.21,52.73,28.44z M74.2,48.3
				c-0.13,0.13-0.27,0.27-0.4,0.4c-3.49,3.76-6.44,7.92-9.26,11.94c-4.83,6.84-9.52,13.28-15.7,16.37
				c-6.71,3.35-12.61,2.41-17.98-2.95c2.01-1.07,3.89-2.41,5.77-4.29c0.8-0.8,0.8-2.01,0-2.82c-0.8-0.8-2.01-0.8-2.82,0
				c-4.16,4.16-10.73,7.78-18.78,1.74c-8.45-6.31-9.26-17.17-9.66-21.87l-0.13-0.8c-0.27-3.89-0.27-10.87,0.27-15.56
				c0.54-5.37-0.27-13.82-0.8-17.57c-0.8-5.9,0.13-7.92,0.67-8.59c0.27-0.27,0.67-0.67,1.61-0.67l0,0c6.57,0,8.99,8.59,9.79,15.83
				c0.27,2.55,1.21,4.96,2.55,7.38c0,0,0,0.13,0.13,0.13c0.67,1.07,1.48,2.15,2.41,3.09c0.8,0.8,2.01,0.8,2.82,0.13
				c0.8-0.8,0.8-2.01,0.13-2.82c-0.54-0.54-0.94-1.07-1.34-1.61c3.22-4.96,11-15.03,18.51-16.23c2.68-0.4,5.1,0.27,7.24,2.28
				c4.56,4.02,1.88,10.87,0,14.76c-4.96,9.52-14.35,16.77-17.31,15.96c-0.8-0.13-1.48-0.94-1.88-2.01c-0.4-1.07-0.54-2.82,0.4-4.29
				c1.21-1.74,2.68-3.89,4.29-5.9c2.41-3.35,4.56-6.17,5.37-7.78c0.54-0.94,0-2.15-0.94-2.68c-0.94-0.54-2.15,0-2.68,0.94
				c-0.67,1.21-2.82,4.29-4.96,7.11c-1.48,2.01-3.09,4.16-4.29,6.04c-1.48,2.28-1.88,5.23-0.8,7.92c0.94,2.28,2.55,3.89,4.56,4.43
				c0.4,0.13,0.8,0.13,1.34,0.13c1.07,0,2.15-0.27,3.35-0.67c0.27,2.95,1.48,6.04,4.43,7.38c0.8,0.4,1.61,0.54,2.41,0.54
				c0.8,0,1.61-0.13,2.55-0.4c1.61,6.04,5.23,7.51,8.18,7.51c0.13,0,0.13,0,0.27,0c6.84-0.13,17.98-14.62,19.72-22.27
				c0.4-1.48,0.54-2.82,0.67-4.16c6.04-2.15,14.35-8.72,18.65-13.68c1.07-1.21,2.68-2.68,4.29-2.41c1.21,0.13,2.28,1.21,2.68,2.28
				C100.09,22.54,98.61,33.67,74.2,48.3z"/>
		</g>
	</g>
</g>
<g>
</g>
<g>
</g>
<g>
</g>
<g>
</g>
<g>
</g>
<g>
</g>
<g>
</g>
<g>
</g>
<g>
</g>
<g>
</g>
<g>
</g>
<g>
</g>
<g>
</g>
<g>
</g>
<g>
</g>
</svg>
