<?xml version="1.0" encoding="utf-8"?>
<!-- Generator: Adobe Illustrator 24.1.0, SVG Export Plug-In . SVG Version: 6.00 Build 0)  -->
<svg version="1.1" id="Layer_1" xmlns="http://www.w3.org/2000/svg" xmlns:xlink="http://www.w3.org/1999/xlink" x="0px" y="0px"
	 viewBox="0 0 16.08 14.12" style="enable-background:new 0 0 16.08 14.12;" xml:space="preserve">
<g>
	<path d="M11.01,5.45c0-1.19,0.01-2.39,0-3.58c-0.01-0.63,0.3-1.02,0.98-1.19c0.85-0.22,1.7-0.46,2.56-0.63
		c0.97-0.19,1.48,0.18,1.52,1.06c0,0.07,0,0.15,0,0.22c0,2.13,0.17,2.09-2.14,2.6c-0.65,0.15-0.88,0.44-0.88,1.03
		c0.03,2.19,0.02,4.38,0.01,6.58c0,1.25-0.56,1.95-1.93,2.33C9.7,14.28,8.28,14.23,7,13.45c-1.34-0.81-1.31-2.37,0.03-3.2
		c0.94-0.58,2.01-0.73,3.1-0.57c0.78,0.12,0.9-0.15,0.88-0.73C10.99,7.79,11.01,6.62,11.01,5.45z"/>
	<path d="M4.52,3.55c-1.16,0-2.33-0.02-3.49,0.01C0.27,3.58-0.01,3.28,0,2.63c0.01-0.61,0.26-0.9,0.98-0.89
		c2.39,0.01,4.77,0.01,7.16,0c0.75,0,0.94,0.34,0.94,0.92c0,0.61-0.26,0.9-0.98,0.89C6.91,3.54,5.72,3.55,4.52,3.55z"/>
	<path d="M4.52,7.07c-1.16,0-2.33-0.02-3.49,0.01C0.27,7.09-0.01,6.79,0,6.15c0.01-0.61,0.26-0.9,0.98-0.89
		c2.39,0.01,4.77,0.01,7.16,0c0.75,0,0.94,0.34,0.94,0.92c0,0.61-0.26,0.9-0.98,0.89C6.91,7.05,5.72,7.07,4.52,7.07z"/>
	<path d="M2.5,10.57c-0.58,0-1.16,0.01-1.75,0c-0.63-0.01-0.75-0.39-0.75-0.85c0-0.47,0.04-0.92,0.74-0.93
		c1.19-0.02,2.38-0.01,3.57,0c0.64,0.01,0.75,0.39,0.75,0.85c0,0.47-0.04,0.91-0.74,0.93C3.72,10.58,3.11,10.57,2.5,10.57z"/>
</g>
</svg>
